<?xml version="1.0" encoding="UTF-8"?>
<svg width="1920px" height="1276px" viewBox="0 0 1920 1276" version="1.1" xmlns="http://www.w3.org/2000/svg" xmlns:xlink="http://www.w3.org/1999/xlink">
    <title>Cart3</title>
    <g id="Cart3" stroke="none" stroke-width="1" fill="none" fill-rule="evenodd">
        <g id="Rectangle" fill="#FFFFFF">
            <rect x="0" y="0" width="1920" height="1276"></rect>
        </g>
        <g id="Main" transform="translate(410.000000, 109.000000)">
            <rect id="Rectangle" stroke="#000000" x="0" y="0" width="240" height="96"></rect>
            <text font-family="SFProText-Regular, SF Pro Text" font-size="35" font-weight="normal" fill="#000000">
                <tspan x="72.421875" y="60.5">Order</tspan>
            </text>
        </g>
        <g id="Main-Copy" transform="translate(978.000000, 109.000000)">
            <rect id="Rectangle" stroke="#000000" x="0" y="0" width="240" height="96"></rect>
            <text id="Main" font-family="SFProText-Regular, SF Pro Text" font-size="35" font-weight="normal" fill="#000000">
                <tspan x="70.5419922" y="60.5">About</tspan>
            </text>
        </g>
        <g id="Main-Copy-2" transform="translate(694.000000, 109.000000)">
            <rect id="Rectangle" stroke="#000000" x="0" y="0" width="240" height="96"></rect>
            <text id="Main" font-family="SFProText-Regular, SF Pro Text" font-size="35" font-weight="normal" fill="#000000">
                <tspan x="54.7595215" y="60.5">Contact</tspan>
            </text>
        </g>
        <g id="Main-Copy-3" transform="translate(1262.000000, 109.000000)">
            <g id="Rectangle" fill="#BCBCBC">
                <rect x="0" y="0" width="240" height="96"></rect>
            </g>
            <rect id="Rectangle" stroke="#000000" x="0" y="0" width="240" height="96"></rect>
            <text id="Main" font-family="SFProText-Regular, SF Pro Text" font-size="35" font-weight="normal" fill="#000000">
                <tspan x="84.7949219" y="60.5">Cart</tspan>
            </text>
        </g>
        <g id="Group" transform="translate(1494.000000, 1127.000000)">
            <g id="Main-Copy-4">
                <rect id="Rectangle" stroke="#000000" x="0" y="0" width="248" height="96"></rect>
                <text id="Next" font-family="SFProText-Regular, SF Pro Text" font-size="35" font-weight="normal" fill="#000000">
                    <tspan x="85.4794922" y="61">Next</tspan>
                </text>
            </g>
            <g transform="translate(209.000000, 34.000000)" stroke="#000000" stroke-linecap="square" stroke-width="3">
                <g>
                    <line x1="0.154545455" y1="0.137931034" x2="16.8454545" y2="15.862069" id="Line-2"></line>
                    <line x1="0.154545455" y1="16.137931" x2="16.8454545" y2="31.862069" id="Line-2-Copy" transform="translate(8.500000, 24.000000) scale(1, -1) translate(-8.500000, -24.000000) "></line>
                </g>
            </g>
        </g>
        <text id="Hanu-Kebab" font-family="SFProText-Regular, SF Pro Text" font-size="65" font-weight="normal" letter-spacing="-1.56" fill="#000000">
            <tspan x="163.123662" y="141">Hanu</tspan>
            <tspan x="147.336279" y="219">Kebab</tspan>
        </text>
        <g id="order-progress" transform="translate(411.000000, 339.000000)">
            <g id="Progress-Copy" transform="translate(390.000000, 0.000000)">
                <text id="Food-Copy-2" font-family="SFProText-Regular, SF Pro Text" font-size="35" font-weight="normal" fill="#000000">
                    <tspan x="-166.308594" y="47">Delivery address</tspan>
                </text>
                <rect id="Rectangle" x="0" y="0" width="188" height="68"></rect>
                <g id="Group" transform="translate(161.000000, 20.000000)" stroke="#000000" stroke-linecap="square" stroke-width="3">
                    <g>
                        <line x1="0.154545455" y1="0.137931034" x2="16.8454545" y2="15.862069" id="Line-2"></line>
                        <line x1="0.154545455" y1="16.137931" x2="16.8454545" y2="31.862069" id="Line-2-Copy" transform="translate(8.500000, 24.000000) scale(1, -1) translate(-8.500000, -24.000000) "></line>
                    </g>
                </g>
            </g>
            <g id="Progress-Copy-4">
                <text id="Food-Copy-2" font-family="SFProText-Regular, SF Pro Text" font-size="35" font-weight="normal" fill="#000000">
                    <tspan x="-104.306641" y="47">Order details</tspan>
                </text>
                <rect id="Rectangle" x="0" y="0" width="188" height="68"></rect>
                <g id="Group" transform="translate(161.000000, 20.000000)" stroke="#000000" stroke-linecap="square" stroke-width="3">
                    <g>
                        <line x1="0.154545455" y1="0.137931034" x2="16.8454545" y2="15.862069" id="Line-2"></line>
                        <line x1="0.154545455" y1="16.137931" x2="16.8454545" y2="31.862069" id="Line-2-Copy" transform="translate(8.500000, 24.000000) scale(1, -1) translate(-8.500000, -24.000000) "></line>
                    </g>
                </g>
            </g>
            <g id="Progress-Copy-2" transform="translate(721.000000, 0.000000)">
                <text id="Food-Copy-2" font-family="SFProText-Regular, SF Pro Text" font-size="35" font-weight="normal" fill="#000000" text-decoration="underline">
                    <tspan x="-125.070801" y="47">Schedule time</tspan>
                </text>
                <rect id="Rectangle" x="0" y="0" width="188" height="68"></rect>
                <g id="Group" transform="translate(161.000000, 20.000000)" stroke="#949494" stroke-linecap="square" stroke-width="3">
                    <g>
                        <line x1="0.154545455" y1="0.137931034" x2="16.8454545" y2="15.862069" id="Line-2"></line>
                        <line x1="0.154545455" y1="16.137931" x2="16.8454545" y2="31.862069" id="Line-2-Copy" transform="translate(8.500000, 24.000000) scale(1, -1) translate(-8.500000, -24.000000) "></line>
                    </g>
                </g>
            </g>
            <g id="Progress-Copy-3" transform="translate(1091.000000, 0.000000)">
                <text id="Food-Copy-2" font-family="SFProText-Regular, SF Pro Text" font-size="35" font-weight="normal" fill="#949494">
                    <tspan x="-153.286133" y="47">Payment details</tspan>
                </text>
                <rect id="Rectangle" x="0" y="0" width="188" height="68"></rect>
            </g>
        </g>
        <text id="€43.95" font-family="SFProText-Regular, SF Pro Text" font-size="35" font-weight="normal" fill="#000000">
            <tspan x="1546" y="170">€43.95</tspan>
        </text>
        <g id="Group" transform="translate(1175.000000, 601.000000)">
            <rect id="Rectangle-Copy-3" stroke="#000000" x="0" y="0" width="407" height="68"></rect>
            <text id="01-/-07-/-2020" font-family="SFProText-Regular, SF Pro Text" font-size="30" font-weight="normal" fill="#000000">
                <tspan x="106.621094" y="45">01 / 07 / 2020</tspan>
            </text>
        </g>
        <g id="Group-Copy" transform="translate(1175.000000, 708.000000)">
            <rect id="Rectangle-Copy-3" stroke="#000000" x="0" y="0" width="407" height="68"></rect>
            <text id="12:00" font-family="SFProText-Regular, SF Pro Text" font-size="30" font-weight="normal" fill="#000000">
                <tspan x="164.595703" y="45">12:00</tspan>
            </text>
        </g>
        <text id="Deliver-as-soon-as-p" font-family="SFProText-Regular, SF Pro Text" font-size="30" font-weight="normal" fill="#000000">
            <tspan x="350.171387" y="606">Deliver as soon as possible</tspan>
            <tspan x="346.377441" y="644.6">Estimated delivery in 35min</tspan>
        </text>
        <text id="Option1" font-family="SFProText-Regular, SF Pro Text" font-size="35" font-weight="normal" fill="#949494">
            <tspan x="478.459961" y="544">Option1</tspan>
        </text>
        <text id="Option2" font-family="SFProText-Regular, SF Pro Text" font-size="35" font-weight="normal" fill="#949494">
            <tspan x="1312.05029" y="544">Option2</tspan>
        </text>
        <path d="M324,560 L760,560 C772.150264,560 782,569.849736 782,582 L782,817 L782,817 L302,817 L302,582 C302,569.849736 311.849736,560 324,560 Z" id="Rectangle" stroke="#000000"></path>
        <path d="M1160,560 L1596,560 C1608.15026,560 1618,569.849736 1618,582 L1618,817 L1618,817 L1138,817 L1138,582 C1138,569.849736 1147.84974,560 1160,560 Z" id="Rectangle-Copy-2" stroke="#000000"></path>
        <g id="Group-3" transform="translate(302.000000, 817.000000)">
            <path d="M0,0 L480,0 L480,45 C480,57.1502645 470.150264,67 458,67 L22,67 C9.8497355,67 1.48797825e-15,57.1502645 0,45 L0,0 L0,0 Z" id="Rectangle-Copy" stroke="#000000"></path>
            <text id="Tap-to-choose" font-family="SFProText-Regular, SF Pro Text" font-size="25" font-weight="normal" fill="#949494">
                <tspan x="156.210449" y="43">Tap to choose</tspan>
            </text>
        </g>
        <g id="Group-2" transform="translate(1138.000000, 817.000000)">
            <path d="M0,0 L480,0 L480,45 C480,57.1502645 470.150264,67 458,67 L22,67 C9.8497355,67 1.48797825e-15,57.1502645 0,45 L0,0 L0,0 Z" id="Rectangle-Copy-4" stroke="#000000"></path>
            <text id="Tap-to-choose-Copy" font-family="SFProText-Regular, SF Pro Text" font-size="25" font-weight="normal" fill="#949494">
                <tspan x="156.210449" y="43">Tap to choose</tspan>
            </text>
        </g>
        <g id="Group" transform="translate(178.000000, 1127.000000)">
            <g id="Main-Copy-5">
                <rect id="Rectangle" stroke="#000000" x="0" y="0" width="248" height="96"></rect>
                <text id="Previous" font-family="SFProText-Regular, SF Pro Text" font-size="35" font-weight="normal" fill="#000000">
                    <tspan x="66.2097168" y="61">Previous</tspan>
                </text>
            </g>
            <g transform="translate(22.000000, 34.000000)" id="arrow-current-copy" stroke="#000000" stroke-linecap="square" stroke-width="3">
                <g transform="translate(8.500000, 16.000000) scale(-1, 1) translate(-8.500000, -16.000000) " id="Group">
                    <line x1="0.154545455" y1="0.137931034" x2="16.8454545" y2="15.862069" id="Line-2"></line>
                    <line x1="0.154545455" y1="16.137931" x2="16.8454545" y2="31.862069" id="Line-2-Copy" transform="translate(8.500000, 24.000000) scale(1, -1) translate(-8.500000, -24.000000) "></line>
                </g>
            </g>
        </g>
    </g>
</svg>