<?xml version="1.0" encoding="UTF-8"?>
<svg width="1920px" height="2177px" viewBox="0 0 1920 2177" version="1.1" xmlns="http://www.w3.org/2000/svg" xmlns:xlink="http://www.w3.org/1999/xlink">
    <title>Home</title>
    <g id="Home" stroke="none" stroke-width="1" fill="none" fill-rule="evenodd">
        <g id="bgr" fill="#FFFFFF">
            <rect id="Rectangle" x="0" y="0" width="1920" height="2177"></rect>
        </g>
        <g id="Main" transform="translate(420.000000, 109.000000)">
            <rect id="Rectangle" stroke="#000000" x="0" y="0" width="240" height="96"></rect>
            <text font-family="SFProText-Regular, SF Pro Text" font-size="35" font-weight="normal" fill="#000000">
                <tspan x="72.421875" y="60.5">Order</tspan>
            </text>
        </g>
        <g id="Main-Copy" transform="translate(981.000000, 109.000000)">
            <rect id="Rectangle" stroke="#000000" x="0" y="0" width="240" height="96"></rect>
            <text id="Main" font-family="SFProText-Regular, SF Pro Text" font-size="35" font-weight="normal" fill="#000000">
                <tspan x="70.5419922" y="60.5">About</tspan>
            </text>
        </g>
        <g id="Main-Copy-2" transform="translate(700.000000, 109.000000)">
            <rect id="Rectangle" stroke="#000000" x="0" y="0" width="240" height="96"></rect>
            <text id="Main" font-family="SFProText-Regular, SF Pro Text" font-size="35" font-weight="normal" fill="#000000">
                <tspan x="54.7595215" y="60.5">Contact</tspan>
            </text>
        </g>
        <g id="Main-Copy-3" transform="translate(1261.000000, 109.000000)">
            <rect id="Rectangle" stroke="#000000" x="0" y="0" width="240" height="96"></rect>
            <text id="Main" font-family="SFProText-Regular, SF Pro Text" font-size="35" font-weight="normal" fill="#000000">
                <tspan x="84.7949219" y="60.5">Cart</tspan>
            </text>
        </g>
        <text id="Hanu-Kebab" font-family="SFProText-Regular, SF Pro Text" font-size="65" font-weight="normal" letter-spacing="-1.56" fill="#000000">
            <tspan x="101.123662" y="141">Hanu</tspan>
            <tspan x="85.3362793" y="219">Kebab</tspan>
        </text>
        <g id="Group" transform="translate(338.000000, 388.000000)" stroke="#000000">
            <rect id="Rectangle" x="0" y="0" width="1244" height="650"></rect>
            <line x1="0.5" y1="650.5" x2="1244.5" y2="0.5" id="Line" stroke-linecap="square"></line>
            <line x1="0.5" y1="650.5" x2="1244.5" y2="0.5" id="Line-Copy" stroke-linecap="square" transform="translate(622.500000, 325.500000) scale(1, -1) translate(-622.500000, -325.500000) "></line>
        </g>
        <g id="Group" transform="translate(1510.000000, 656.000000)" stroke="#000000" stroke-linecap="square">
            <line x1="0.5" y1="0.5" x2="54.5" y2="57.5" id="Line-2"></line>
            <line x1="1" y1="57" x2="55" y2="114" id="Line-2-Copy" transform="translate(28.000000, 85.500000) scale(1, -1) translate(-28.000000, -85.500000) "></line>
        </g>
        <g id="Group-Copy" transform="translate(382.000000, 713.500000) scale(-1, 1) translate(-382.000000, -713.500000) translate(354.000000, 656.000000)" stroke="#000000" stroke-linecap="square">
            <line x1="0.5" y1="0.5" x2="54.5" y2="57.5" id="Line-2"></line>
            <line x1="1" y1="57" x2="55" y2="114" id="Line-2-Copy" transform="translate(28.000000, 85.500000) scale(1, -1) translate(-28.000000, -85.500000) "></line>
        </g>
        <circle id="Oval" stroke="#000000" fill="#000000" cx="906.5" cy="1008.5" r="13.5"></circle>
        <circle id="Oval-Copy" stroke="#000000" cx="942.5" cy="1008.5" r="13.5"></circle>
        <circle id="Oval-Copy-2" stroke="#000000" cx="978.5" cy="1008.5" r="13.5"></circle>
        <circle id="Oval-Copy-3" stroke="#000000" cx="1014.5" cy="1008.5" r="13.5"></circle>
    </g>
</svg>