<?xml version="1.0" encoding="UTF-8"?>
<svg width="70px" height="99px" viewBox="0 0 70 99" version="1.1" xmlns="http://www.w3.org/2000/svg" xmlns:xlink="http://www.w3.org/1999/xlink">
    <title>Artboard Copy 2</title>
    <g id="Artboard-Copy-2" stroke="none" stroke-width="1" fill="none" fill-rule="evenodd">
        <rect id="Rectangle-Copy-4" stroke="#FFFFFF" stroke-width="2" fill="#FFFFFF" x="1" y="1" width="68" height="97"></rect>
        <rect id="Rectangle-Copy-5" stroke="#323232" stroke-width="2" fill="#323232" x="50" y="1" width="19" height="19"></rect>
        <polygon id="Rectangle-Copy-6" fill="#FFFFFF" points="51 1 69 19 51 19"></polygon>
        <path d="M22.6953125,63.390625 C25.7942708,63.390625 28.2779948,62.5735677 30.1464844,60.9394531 C32.014974,59.3053385 33.125,56.984375 33.4765625,53.9765625 L33.4765625,53.9765625 L29.7070312,53.9765625 C29.3424479,56.3203125 28.6035156,57.9641927 27.4902344,58.9082031 C26.3769531,59.8522135 24.7786458,60.3242188 22.6953125,60.3242188 C20.3776042,60.3242188 18.5742188,59.4127604 17.2851562,57.5898438 C15.9960938,55.7669271 15.3515625,53.3125 15.3515625,50.2265625 L15.3515625,50.2265625 L15.3515625,47.4726562 C15.3515625,44.2044271 16.031901,41.6848958 17.3925781,39.9140625 C18.7532552,38.1432292 20.6315104,37.2578125 23.0273438,37.2578125 C24.9804688,37.2578125 26.500651,37.765625 27.5878906,38.78125 C28.6751302,39.796875 29.3815104,41.4375 29.7070312,43.703125 L29.7070312,43.703125 L33.4765625,43.703125 C33.1770833,40.7213542 32.1158854,38.3873698 30.2929688,36.7011719 C28.4700521,35.014974 26.0481771,34.171875 23.0273438,34.171875 C20.7486979,34.171875 18.7434896,34.7089844 17.0117188,35.7832031 C15.2799479,36.8574219 13.9420573,38.3971354 12.9980469,40.4023438 C12.0540365,42.4075521 11.5820312,44.7317708 11.5820312,47.375 L11.5820312,47.375 L11.5820312,50.109375 C11.5820312,54.1458333 12.594401,57.3684896 14.6191406,59.7773438 C16.6438802,62.1861979 19.3359375,63.390625 22.6953125,63.390625 Z M49.6875,63 L60.234375,34.5625 L56.1328125,34.5625 L48.0078125,58.0195312 L39.921875,34.5625 L35.8398438,34.5625 L46.3671875,63 L49.6875,63 Z" id="CV" fill="#323232" fill-rule="nonzero"></path>
    </g>
</svg>