<?xml version="1.0" encoding="UTF-8"?>
<svg width="70px" height="99px" viewBox="0 0 70 99" version="1.1" xmlns="http://www.w3.org/2000/svg" xmlns:xlink="http://www.w3.org/1999/xlink">
    <title>resume2</title>
    <g id="resume2" stroke="none" stroke-width="1" fill="none" fill-rule="evenodd">
        <rect id="Rectangle-Copy-4" stroke="#FFFFFF" stroke-width="2" fill="#FFFFFF" x="1" y="1" width="68" height="97"></rect>
        <path d="M51,0 L51,19 L70,19 L70,20 L50,20 L50,0 L51,0 Z M70,0 L70,17 L53,0 L70,0 Z" id="Combined-Shape" stroke="#323232" stroke-width="2" fill="#323232"></path>
        <path d="M21.3000488,65.4199219 C24.8833822,65.4199219 27.7703451,64.4750977 29.9609375,62.5854492 C32.1515299,60.6958008 33.365804,58.1062826 33.6037598,54.8168945 L33.6037598,54.8168945 L27.3049316,54.8168945 C27.1649577,56.6785482 26.6155599,58.0537923 25.6567383,58.942627 C24.6979167,59.8314616 23.2456868,60.2758789 21.3000488,60.2758789 C19.1444499,60.2758789 17.5662435,59.5130208 16.5654297,57.9873047 C15.5646159,56.4615885 15.064209,54.0470378 15.064209,50.7436523 L15.064209,50.7436523 L15.064209,48.434082 C15.0922038,45.2706706 15.6276042,42.9366048 16.6704102,41.4318848 C17.7132161,39.9271647 19.2844238,39.1748047 21.3840332,39.1748047 C23.3156738,39.1748047 24.7539062,39.619222 25.6987305,40.5080566 C26.6435547,41.3968913 27.1929525,42.828125 27.3469238,44.8017578 L27.3469238,44.8017578 L33.645752,44.8017578 C33.3098145,41.3863932 32.0640462,38.7338867 29.9084473,36.8442383 C27.7528483,34.9545898 24.911377,34.0097656 21.3840332,34.0097656 C18.8365072,34.0097656 16.6004232,34.6081543 14.6757812,35.8049316 C12.7511393,37.001709 11.2709147,38.7198893 10.2351074,40.9594727 C9.19930013,43.199056 8.68139648,45.7885742 8.68139648,48.7280273 L8.68139648,48.7280273 L8.68139648,50.5966797 C8.68139648,55.2018229 9.8046875,58.8236491 12.0512695,61.4621582 C14.2978516,64.1006673 17.380778,65.4199219 21.3000488,65.4199219 Z M52.3322754,65 L62.9772949,34.4296875 L55.9645996,34.4296875 L49.0358887,57.4204102 L42.1491699,34.4296875 L35.1574707,34.4296875 L45.760498,65 L52.3322754,65 Z" id="CV" fill="#323232" fill-rule="nonzero"></path>
    </g>
</svg>